<mxfile host="app.diagrams.net" modified="2022-03-06T06:59:11.755Z" agent="5.0 (Macintosh; Intel Mac OS X 10_15_7) AppleWebKit/537.36 (KHTML, like Gecko) Chrome/98.0.4758.109 Safari/537.36" etag="UbvinQ3Trd5ggrinIji3" version="15.7.4" type="github">
  <diagram id="6PscUzwJlud1ieV-xxwC" name="Page-1">
    <mxGraphModel dx="652" dy="367" grid="1" gridSize="10" guides="1" tooltips="1" connect="1" arrows="1" fold="1" page="1" pageScale="1" pageWidth="827" pageHeight="1169" math="0" shadow="0">
      <root>
        <mxCell id="0" />
        <mxCell id="1" parent="0" />
        <mxCell id="M0tfwLTNwhrGCImArsVk-6" value="req" style="edgeStyle=orthogonalEdgeStyle;rounded=0;orthogonalLoop=1;jettySize=auto;html=1;exitX=1;exitY=0.25;exitDx=0;exitDy=0;entryX=0;entryY=0.25;entryDx=0;entryDy=0;" edge="1" parent="1" source="M0tfwLTNwhrGCImArsVk-1" target="M0tfwLTNwhrGCImArsVk-2">
          <mxGeometry relative="1" as="geometry" />
        </mxCell>
        <mxCell id="M0tfwLTNwhrGCImArsVk-1" value="" style="rounded=0;whiteSpace=wrap;html=1;" vertex="1" parent="1">
          <mxGeometry x="60" y="150" width="110" height="110" as="geometry" />
        </mxCell>
        <mxCell id="M0tfwLTNwhrGCImArsVk-7" value="res" style="edgeStyle=orthogonalEdgeStyle;rounded=0;orthogonalLoop=1;jettySize=auto;html=1;exitX=0;exitY=0.75;exitDx=0;exitDy=0;entryX=1;entryY=0.75;entryDx=0;entryDy=0;startArrow=none;" edge="1" parent="1" source="M0tfwLTNwhrGCImArsVk-32" target="M0tfwLTNwhrGCImArsVk-1">
          <mxGeometry relative="1" as="geometry" />
        </mxCell>
        <mxCell id="M0tfwLTNwhrGCImArsVk-11" style="edgeStyle=orthogonalEdgeStyle;rounded=0;orthogonalLoop=1;jettySize=auto;html=1;exitX=0;exitY=0.25;exitDx=0;exitDy=0;entryX=0;entryY=0.5;entryDx=0;entryDy=0;" edge="1" parent="1" source="M0tfwLTNwhrGCImArsVk-2" target="M0tfwLTNwhrGCImArsVk-8">
          <mxGeometry relative="1" as="geometry" />
        </mxCell>
        <mxCell id="M0tfwLTNwhrGCImArsVk-12" style="edgeStyle=orthogonalEdgeStyle;rounded=0;orthogonalLoop=1;jettySize=auto;html=1;exitX=0;exitY=0.25;exitDx=0;exitDy=0;entryX=0;entryY=0.5;entryDx=0;entryDy=0;" edge="1" parent="1">
          <mxGeometry relative="1" as="geometry">
            <mxPoint x="420" y="176.5" as="sourcePoint" />
            <mxPoint x="440" y="174.99999999999997" as="targetPoint" />
          </mxGeometry>
        </mxCell>
        <mxCell id="M0tfwLTNwhrGCImArsVk-14" style="edgeStyle=orthogonalEdgeStyle;rounded=0;orthogonalLoop=1;jettySize=auto;html=1;exitX=0;exitY=0.25;exitDx=0;exitDy=0;entryX=0;entryY=0.5;entryDx=0;entryDy=0;" edge="1" parent="1" source="M0tfwLTNwhrGCImArsVk-2" target="M0tfwLTNwhrGCImArsVk-8">
          <mxGeometry relative="1" as="geometry" />
        </mxCell>
        <mxCell id="M0tfwLTNwhrGCImArsVk-2" value="" style="rounded=0;whiteSpace=wrap;html=1;" vertex="1" parent="1">
          <mxGeometry x="420" y="150" width="110" height="110" as="geometry" />
        </mxCell>
        <mxCell id="M0tfwLTNwhrGCImArsVk-3" value="Client" style="text;html=1;strokeColor=none;fillColor=none;align=center;verticalAlign=middle;whiteSpace=wrap;rounded=0;" vertex="1" parent="1">
          <mxGeometry x="85" y="110" width="60" height="30" as="geometry" />
        </mxCell>
        <mxCell id="M0tfwLTNwhrGCImArsVk-4" value="Server" style="text;html=1;strokeColor=none;fillColor=none;align=center;verticalAlign=middle;whiteSpace=wrap;rounded=0;" vertex="1" parent="1">
          <mxGeometry x="440" y="110" width="60" height="30" as="geometry" />
        </mxCell>
        <mxCell id="M0tfwLTNwhrGCImArsVk-8" value="route" style="rounded=1;whiteSpace=wrap;html=1;" vertex="1" parent="1">
          <mxGeometry x="440" y="160" width="30" height="30" as="geometry" />
        </mxCell>
        <mxCell id="M0tfwLTNwhrGCImArsVk-9" value="pug" style="rounded=1;whiteSpace=wrap;html=1;" vertex="1" parent="1">
          <mxGeometry x="490" y="170" width="30" height="30" as="geometry" />
        </mxCell>
        <mxCell id="M0tfwLTNwhrGCImArsVk-10" value="" style="verticalLabelPosition=bottom;verticalAlign=top;html=1;shape=mxgraph.basic.flash" vertex="1" parent="1">
          <mxGeometry x="490" y="210" width="20" height="30" as="geometry" />
        </mxCell>
        <mxCell id="M0tfwLTNwhrGCImArsVk-15" value="req" style="edgeStyle=orthogonalEdgeStyle;rounded=0;orthogonalLoop=1;jettySize=auto;html=1;exitX=1;exitY=0.25;exitDx=0;exitDy=0;entryX=0;entryY=0.25;entryDx=0;entryDy=0;" edge="1" parent="1" source="M0tfwLTNwhrGCImArsVk-16" target="M0tfwLTNwhrGCImArsVk-21">
          <mxGeometry relative="1" as="geometry" />
        </mxCell>
        <mxCell id="M0tfwLTNwhrGCImArsVk-16" value="" style="rounded=0;whiteSpace=wrap;html=1;" vertex="1" parent="1">
          <mxGeometry x="60" y="370" width="110" height="110" as="geometry" />
        </mxCell>
        <mxCell id="M0tfwLTNwhrGCImArsVk-17" value="res" style="edgeStyle=orthogonalEdgeStyle;rounded=0;orthogonalLoop=1;jettySize=auto;html=1;exitX=0;exitY=0.75;exitDx=0;exitDy=0;entryX=1;entryY=0.75;entryDx=0;entryDy=0;" edge="1" parent="1" source="M0tfwLTNwhrGCImArsVk-21" target="M0tfwLTNwhrGCImArsVk-16">
          <mxGeometry relative="1" as="geometry" />
        </mxCell>
        <mxCell id="M0tfwLTNwhrGCImArsVk-18" style="edgeStyle=orthogonalEdgeStyle;rounded=0;orthogonalLoop=1;jettySize=auto;html=1;exitX=0;exitY=0.25;exitDx=0;exitDy=0;entryX=0;entryY=0.5;entryDx=0;entryDy=0;" edge="1" parent="1" source="M0tfwLTNwhrGCImArsVk-21" target="M0tfwLTNwhrGCImArsVk-24">
          <mxGeometry relative="1" as="geometry" />
        </mxCell>
        <mxCell id="M0tfwLTNwhrGCImArsVk-19" style="edgeStyle=orthogonalEdgeStyle;rounded=0;orthogonalLoop=1;jettySize=auto;html=1;exitX=0;exitY=0.25;exitDx=0;exitDy=0;entryX=0;entryY=0.5;entryDx=0;entryDy=0;" edge="1" parent="1">
          <mxGeometry relative="1" as="geometry">
            <mxPoint x="420" y="396.4999999999999" as="sourcePoint" />
            <mxPoint x="440" y="395" as="targetPoint" />
          </mxGeometry>
        </mxCell>
        <mxCell id="M0tfwLTNwhrGCImArsVk-20" style="edgeStyle=orthogonalEdgeStyle;rounded=0;orthogonalLoop=1;jettySize=auto;html=1;exitX=0;exitY=0.25;exitDx=0;exitDy=0;entryX=0;entryY=0.5;entryDx=0;entryDy=0;" edge="1" parent="1" source="M0tfwLTNwhrGCImArsVk-21" target="M0tfwLTNwhrGCImArsVk-24">
          <mxGeometry relative="1" as="geometry" />
        </mxCell>
        <mxCell id="M0tfwLTNwhrGCImArsVk-21" value="" style="rounded=0;whiteSpace=wrap;html=1;" vertex="1" parent="1">
          <mxGeometry x="420" y="370" width="110" height="110" as="geometry" />
        </mxCell>
        <mxCell id="M0tfwLTNwhrGCImArsVk-22" value="Client" style="text;html=1;strokeColor=none;fillColor=none;align=center;verticalAlign=middle;whiteSpace=wrap;rounded=0;" vertex="1" parent="1">
          <mxGeometry x="85" y="330" width="60" height="30" as="geometry" />
        </mxCell>
        <mxCell id="M0tfwLTNwhrGCImArsVk-23" value="Server" style="text;html=1;strokeColor=none;fillColor=none;align=center;verticalAlign=middle;whiteSpace=wrap;rounded=0;" vertex="1" parent="1">
          <mxGeometry x="440" y="330" width="60" height="30" as="geometry" />
        </mxCell>
        <mxCell id="M0tfwLTNwhrGCImArsVk-24" value="route" style="rounded=1;whiteSpace=wrap;html=1;" vertex="1" parent="1">
          <mxGeometry x="455" y="380" width="30" height="30" as="geometry" />
        </mxCell>
        <mxCell id="M0tfwLTNwhrGCImArsVk-25" value="reactJs" style="rounded=1;whiteSpace=wrap;html=1;" vertex="1" parent="1">
          <mxGeometry x="460" y="430" width="30" height="30" as="geometry" />
        </mxCell>
        <mxCell id="M0tfwLTNwhrGCImArsVk-27" value="V8" style="rounded=1;whiteSpace=wrap;html=1;" vertex="1" parent="1">
          <mxGeometry x="99" y="442" width="30" height="30" as="geometry" />
        </mxCell>
        <mxCell id="M0tfwLTNwhrGCImArsVk-29" value="" style="verticalLabelPosition=bottom;verticalAlign=top;html=1;shape=mxgraph.basic.flash" vertex="1" parent="1">
          <mxGeometry x="105" y="405" width="20" height="30" as="geometry" />
        </mxCell>
        <mxCell id="M0tfwLTNwhrGCImArsVk-32" value="html" style="shape=parallelogram;perimeter=parallelogramPerimeter;whiteSpace=wrap;html=1;fixedSize=1;" vertex="1" parent="1">
          <mxGeometry x="427" y="220" width="56" height="20" as="geometry" />
        </mxCell>
        <mxCell id="M0tfwLTNwhrGCImArsVk-34" value="html" style="shape=parallelogram;perimeter=parallelogramPerimeter;whiteSpace=wrap;html=1;fixedSize=1;" vertex="1" parent="1">
          <mxGeometry x="89" y="380" width="56" height="20" as="geometry" />
        </mxCell>
      </root>
    </mxGraphModel>
  </diagram>
</mxfile>
